# xmcd
#
# Track frame offsets:
#	150
#	12724
#	27260
#	45162
#	62874
#	78654
#	93472
#	107373
#	130827
#	146465
#
# Disc length: 2267 seconds
#
# Revision: 1
# Processed by: cddbd v1.5.2PL0 Copyright (c) Steve Scherf et al.
# Submitted via: audiograbber 1.83.01
#
DISCID=7d08d90a
DTITLE=Paolo Conte - 3
DYEAR=2003
DGENRE=Italo Swing
TTITLE0=Via con me
TTITLE1=Wanda, stai seria con la faccia ma però
TTITLE2=Madeleine
TTITLE3=Chi siamo noi
TTITLE4=Naufragio a Milano
TTITLE5=La donna d'inverno
TTITLE6=La ricostruzione del Mocambo
TTITLE7=Alle prese con una verde milonga
TTITLE8=Sono qui con te sempre più solo
TTITLE9=Boogie
EXTD=YEAR: 2003
EXTT0=
EXTT1=
EXTT2=
EXTT3=
EXTT4=
EXTT5=
EXTT6=
EXTT7=
EXTT8=
EXTT9=
PLAYORDER=
